<svg height="606" width="720" xmlns="http://www.w3.org/2000/svg">
<rect height="606" fill="#555" width="720"></rect>
<text fill="#7f7" font-family="Courier New" font-size="12" xml:space="preserve">
<tspan x="10" y="26">2017-04-19 13:47:45 +0800</tspan>
<tspan x="10" y="42">update</tspan>
<tspan x="10" y="58"></tspan>
<tspan x="10" y="74">2017-04-17 16:46:50 +0000</tspan>
<tspan x="10" y="90">[ci skip] npm published</tspan>
<tspan x="10" y="106"></tspan>
<tspan x="10" y="122">2017-04-17 19:29:25 +0800</tspan>
<tspan x="10" y="138">[npm publishAfterCommitAfterBuild]</tspan>
<tspan x="10" y="154">2017-04-17 07:00:51 +0000</tspan>
<tspan x="10" y="170">[ci skip] npm published</tspan>
<tspan x="10" y="186"></tspan>
<tspan x="10" y="202">2017-04-15 05:55:38 +0800</tspan>
<tspan x="10" y="218">[npm publishAfterCommitAfterBuild]</tspan>
<tspan x="10" y="234">2017-04-14 05:39:47 +0000</tspan>
<tspan x="10" y="250">[ci skip] npm published</tspan>
<tspan x="10" y="266"></tspan>
<tspan x="10" y="282">2017-04-14 13:35:42 +0800</tspan>
<tspan x="10" y="298">[npm publishAfterCommitAfterBuild]</tspan>
<tspan x="10" y="314">2017-04-14 05:34:15 +0000</tspan>
<tspan x="10" y="330">[ci skip] npm published</tspan>
<tspan x="10" y="346"></tspan>
<tspan x="10" y="362">2017-04-14 13:30:10 +0800</tspan>
<tspan x="10" y="378">[npm publishAfterCommitAfterBuild]</tspan>
<tspan x="10" y="394">2017-04-12 02:39:43 +0000</tspan>
<tspan x="10" y="410">[ci skip] npm published</tspan>
<tspan x="10" y="426"></tspan>
<tspan x="10" y="442">2017-04-12 10:34:33 +0800</tspan>
<tspan x="10" y="458">[npm publishAfterCommitAfterBuild]</tspan>
<tspan x="10" y="474">2017-04-10 18:54:29 +0000</tspan>
<tspan x="10" y="490">[ci skip] npm published</tspan>
<tspan x="10" y="506"></tspan>
<tspan x="10" y="522">2017-04-10 18:44:41 +0000</tspan>
<tspan x="10" y="538">[npm publishAfterCommitAfterBuild]</tspan>
<tspan x="10" y="554"></tspan>
<tspan x="10" y="570">2014-03-26 02:31:50 +0700</tspan>
<tspan x="10" y="586">add blank README.md</tspan>
</text>
</svg>
