<svg height="1118" width="720" xmlns="http://www.w3.org/2000/svg">
<rect height="1118" fill="#555" width="720"></rect>
<text fill="#7f7" font-family="Courier New" font-size="12" xml:space="preserve">
<tspan x="10" y="26"></tspan>
<tspan x="10" y="42">&gt; npmdoc-sandbox2@0.0.23 test /home/travis/build/npmdoc/node-npmdoc-sandbox2</tspan>
<tspan x="10" y="58">&gt; (set -e; export PORT=$(utility2 shServerPortRandom); utility2 test test.js)</tspan>
<tspan x="10" y="74"></tspan>
<tspan x="10" y="90"></tspan>
<tspan x="10" y="106">[MODE_BUILD=npmTest] - 2017-04-12T02:38:31Z - npm-testing /home/travis/build/npmdoc/node-npmdoc-\</tspan>
<tspan x="10" y="122">sandbox2</tspan>
<tspan x="10" y="138"></tspan>
<tspan x="10" y="154">merging file:///home/travis/build/npmdoc/node-npmdoc-sandbox2/tmp/build/test-report.json to test\</tspan>
<tspan x="10" y="170">-report</tspan>
<tspan x="10" y="186">&gt; server listening on http-port 56464</tspan>
<tspan x="10" y="202">[node test-case 1 of 7 passed] - testCase_buildApidoc_default</tspan>
<tspan x="10" y="218">created apidoc file:///home/travis/build/npmdoc/node-npmdoc-sandbox2/tmp/build/apidoc.html</tspan>
<tspan x="10" y="234"></tspan>
<tspan x="10" y="250">created apidoc file:///home/travis/build/npmdoc/node-npmdoc-sandbox2/tmp/build/apidoc.html</tspan>
<tspan x="10" y="266"></tspan>
<tspan x="10" y="282">[node test-case 2 of 7 passed] - testCase_buildLib_default</tspan>
<tspan x="10" y="298">[node test-case 3 of 7 passed] - testCase_buildReadme_default</tspan>
<tspan x="10" y="314">[node test-case 4 of 7 passed] - testCase_buildTest_default</tspan>
<tspan x="10" y="330"></tspan>
<tspan x="10" y="346">browserTest - created electron entry-page /home/travis/build/npmdoc/node-npmdoc-sandbox2/tmp/ele\</tspan>
<tspan x="10" y="362">ctron.15b6006d9ae0.edf0c89d0a12e.html</tspan>
<tspan x="10" y="378"></tspan>
<tspan x="10" y="394">[node test-case 5 of 7 passed] - testCase_buildCustomOrg_default</tspan>
<tspan x="10" y="410">Xlib:  extension "RANDR" missing on display ":99.0".</tspan>
<tspan x="10" y="426">merging file:///home/travis/build/npmdoc/node-npmdoc-sandbox2/tmp/build/test-report.json to test\</tspan>
<tspan x="10" y="442">-report</tspan>
<tspan x="10" y="458">Xlib:  extension "RANDR" missing on display ":99.0".</tspan>
<tspan x="10" y="474">[5957:0412/023834:WARNING:audio_manager.cc(314)] Multiple instances of AudioManager detected</tspan>
<tspan x="10" y="490">[5957:0412/023834:WARNING:audio_manager.cc(275)] Multiple instances of AudioManager detected</tspan>
<tspan x="10" y="506">[5974:0412/023834:ERROR:sandbox_linux.cc(343)] InitializeSandbox() called with multiple threads \</tspan>
<tspan x="10" y="522">in process gpu-process. </tspan>
<tspan x="10" y="538">[5957:0412/023834:ERROR:browser_gpu_channel_host_factory.cc(131)] Failed to create channel.</tspan>
<tspan x="10" y="554"></tspan>
<tspan x="10" y="570">browserTest - opened url http://127.0.0.1:56464?modeTest=1</tspan>
<tspan x="10" y="586"></tspan>
<tspan x="10" y="602">&gt; server listening on http-port 61135</tspan>
<tspan x="10" y="618">[node test-case 6 of 7 passed] - testCase_buildApp_default</tspan>
<tspan x="10" y="634"></tspan>
<tspan x="10" y="650">browserTest - created screenCapture file:///home/travis/build/npmdoc/node-npmdoc-sandbox2/tmp/bu\</tspan>
<tspan x="10" y="666">ild/screenCapture.npmTest.browser.%2F.png</tspan>
<tspan x="10" y="682"></tspan>
<tspan x="10" y="698">browserTest - created screenCapture file:///home/travis/build/npmdoc/node-npmdoc-sandbox2/tmp/bu\</tspan>
<tspan x="10" y="714">ild/screenCapture.npmTest.browser.%2F.html</tspan>
<tspan x="10" y="730"></tspan>
<tspan x="10" y="746">browserTest - exit-code 0 - http://127.0.0.1:56464?modeTest=1</tspan>
<tspan x="10" y="762"></tspan>
<tspan x="10" y="778"></tspan>
<tspan x="10" y="794">browserTest - merging test-report from /home/travis/build/npmdoc/node-npmdoc-sandbox2/tmp/test-r\</tspan>
<tspan x="10" y="810">eport.npmTest.browser.%2F.json</tspan>
<tspan x="10" y="826"></tspan>
<tspan x="10" y="842">[node test-case 7 of 7 passed] - testCase_webpage_default</tspan>
<tspan x="10" y="858">merging file:///home/travis/build/npmdoc/node-npmdoc-sandbox2/tmp/build/test-report.json to test\</tspan>
<tspan x="10" y="874">-report</tspan>
<tspan x="10" y="890"></tspan>
<tspan x="10" y="906">-------------------------------------------------------</tspan>
<tspan x="10" y="922">| test-report - buildCustomOrg - node - linux v6.10.2 - 2017-04-12T02:38:18.006Z</tspan>
<tspan x="10" y="938">|   29974 ms            0 failed        7 passed      |</tspan>
<tspan x="10" y="954">-------------------------------------------------------</tspan>
<tspan x="10" y="970"></tspan>
<tspan x="10" y="986">created test-report file:///home/travis/build/npmdoc/node-npmdoc-sandbox2/tmp/build/test-report.\</tspan>
<tspan x="10" y="1002">html</tspan>
<tspan x="10" y="1018"></tspan>
<tspan x="10" y="1034"></tspan>
<tspan x="10" y="1050">npmTest - 0 failed tests</tspan>
<tspan x="10" y="1066"></tspan>
<tspan x="10" y="1082"></tspan>
<tspan x="10" y="1098">[MODE_BUILD=npmTest] - 2017-04-12T02:38:51Z - EXIT_CODE - 0</tspan>
</text>
</svg>
