<svg height="1006" width="720" xmlns="http://www.w3.org/2000/svg">
<rect height="1006" fill="#555" width="720"></rect>
<text fill="#7f7" font-family="Courier New" font-size="12" xml:space="preserve">
<tspan x="10" y="26"></tspan>
<tspan x="10" y="42">[MODE_BUILD=buildApp] - 2017-05-30T07:56:26.483Z - npm-testing /home/travis/build/npmdoc/node-np\</tspan>
<tspan x="10" y="58">mdoc-sandbox2</tspan>
<tspan x="10" y="74"></tspan>
<tspan x="10" y="90"></tspan>
<tspan x="10" y="106">buildApp - merged test-report from file:///home/travis/build/npmdoc/node-npmdoc-sandbox2/tmp/bui\</tspan>
<tspan x="10" y="122">ld/test-report.json</tspan>
<tspan x="10" y="138">&gt; server listening on http-port 51625</tspan>
<tspan x="10" y="154">apidocCreate - readExample /home/travis/build/npmdoc/node-npmdoc-sandbox2/node_modules/sandbox2/\</tspan>
<tspan x="10" y="170">package.json</tspan>
<tspan x="10" y="186">apidocCreate - readExample /home/travis/build/npmdoc/node-npmdoc-sandbox2/node_modules/sandbox2/\</tspan>
<tspan x="10" y="202">lib.sandbox2.js</tspan>
<tspan x="10" y="218">apidocCreate - readExample /home/travis/build/npmdoc/node-npmdoc-sandbox2/node_modules/sandbox2/\</tspan>
<tspan x="10" y="234">LICENSE</tspan>
<tspan x="10" y="250">apidocCreate - readExample /home/travis/build/npmdoc/node-npmdoc-sandbox2/node_modules/sandbox2/\</tspan>
<tspan x="10" y="266">package.json</tspan>
<tspan x="10" y="282">apidocCreate - readExample /home/travis/build/npmdoc/node-npmdoc-sandbox2/node_modules/sandbox2/\</tspan>
<tspan x="10" y="298">README.md</tspan>
<tspan x="10" y="314">apidocCreate - readExample /home/travis/build/npmdoc/node-npmdoc-sandbox2/node_modules/sandbox2/\</tspan>
<tspan x="10" y="330">test.js</tspan>
<tspan x="10" y="346">apidocCreate - requiring /home/travis/build/npmdoc/node-npmdoc-sandbox2/node_modules/sandbox2 ..\</tspan>
<tspan x="10" y="362">.</tspan>
<tspan x="10" y="378">apidocCreate - ... required /home/travis/build/npmdoc/node-npmdoc-sandbox2/node_modules/sandbox2</tspan>
<tspan x="10" y="394">created apidoc file:///home/travis/build/npmdoc/node-npmdoc-sandbox2/tmp/build/apidoc.html</tspan>
<tspan x="10" y="410"></tspan>
<tspan x="10" y="426">apidocCreate - readExample /home/travis/build/npmdoc/node-npmdoc-sandbox2/node_modules/sandbox2/\</tspan>
<tspan x="10" y="442">package.json</tspan>
<tspan x="10" y="458">apidocCreate - readExample /home/travis/build/npmdoc/node-npmdoc-sandbox2/node_modules/sandbox2/\</tspan>
<tspan x="10" y="474">lib.sandbox2.js</tspan>
<tspan x="10" y="490">apidocCreate - readExample /home/travis/build/npmdoc/node-npmdoc-sandbox2/node_modules/sandbox2/\</tspan>
<tspan x="10" y="506">LICENSE</tspan>
<tspan x="10" y="522">apidocCreate - readExample /home/travis/build/npmdoc/node-npmdoc-sandbox2/node_modules/sandbox2/\</tspan>
<tspan x="10" y="538">package.json</tspan>
<tspan x="10" y="554">apidocCreate - readExample /home/travis/build/npmdoc/node-npmdoc-sandbox2/node_modules/sandbox2/\</tspan>
<tspan x="10" y="570">README.md</tspan>
<tspan x="10" y="586">apidocCreate - readExample /home/travis/build/npmdoc/node-npmdoc-sandbox2/node_modules/sandbox2/\</tspan>
<tspan x="10" y="602">test.js</tspan>
<tspan x="10" y="618">apidocCreate - requiring /home/travis/build/npmdoc/node-npmdoc-sandbox2/node_modules/sandbox2 ..\</tspan>
<tspan x="10" y="634">.</tspan>
<tspan x="10" y="650">apidocCreate - ... required /home/travis/build/npmdoc/node-npmdoc-sandbox2/node_modules/sandbox2</tspan>
<tspan x="10" y="666">created customOrg file:///home/travis/build/npmdoc/node-npmdoc-sandbox2/README.md</tspan>
<tspan x="10" y="682"></tspan>
<tspan x="10" y="698">&gt; server listening on http-port 32772</tspan>
<tspan x="10" y="714">[node test-case 1 of 1 passed] - testCase_buildApp_default</tspan>
<tspan x="10" y="730"></tspan>
<tspan x="10" y="746">buildApp - merged test-report from file:///home/travis/build/npmdoc/node-npmdoc-sandbox2/tmp/bui\</tspan>
<tspan x="10" y="762">ld/test-report.json</tspan>
<tspan x="10" y="778"></tspan>
<tspan x="10" y="794">-------------------------------------------------------</tspan>
<tspan x="10" y="810">| test-report - buildApp - node - linux v6.10.3 - 2017-05-30T07:56:26.650Z</tspan>
<tspan x="10" y="826">|    5922 ms            0 failed        1 passed      |</tspan>
<tspan x="10" y="842">-------------------------------------------------------</tspan>
<tspan x="10" y="858"></tspan>
<tspan x="10" y="874">created test-report file:///home/travis/build/npmdoc/node-npmdoc-sandbox2/tmp/build/test-report.\</tspan>
<tspan x="10" y="890">html</tspan>
<tspan x="10" y="906"></tspan>
<tspan x="10" y="922"></tspan>
<tspan x="10" y="938">buildApp - 0 failed tests</tspan>
<tspan x="10" y="954"></tspan>
<tspan x="10" y="970"></tspan>
<tspan x="10" y="986">[MODE_BUILD=buildApp] - 2017-05-30T07:56:35.405Z - EXIT_CODE - 0</tspan>
</text>
</svg>
