<svg height="718" width="720" xmlns="http://www.w3.org/2000/svg">
<rect height="718" fill="#555" width="720"></rect>
<text fill="#7f7" font-family="Courier New" font-size="12" xml:space="preserve">
<tspan x="10" y="26">2018-04-11 18:39:33 +0000</tspan>

<tspan x="10" y="42">[npm publishAfterCommit]</tspan>

<tspan x="10" y="58"></tspan>

<tspan x="10" y="74">2018-04-12 02:31:48 +0800</tspan>

<tspan x="10" y="90">[npm publishAfterCommitAfterBuild]</tspan>

<tspan x="10" y="106">2018-04-12 01:59:54 +0800</tspan>

<tspan x="10" y="122">[npm publishAfterCommitAfterBuild]</tspan>

<tspan x="10" y="138">2017-10-08 04:53:01 +0000</tspan>

<tspan x="10" y="154">[ci skip] npm published</tspan>

<tspan x="10" y="170"></tspan>

<tspan x="10" y="186">2017-10-08 12:47:17 +0800</tspan>

<tspan x="10" y="202">[npm publishAfterCommitAfterBuild]</tspan>

<tspan x="10" y="218">2017-10-08 04:35:02 +0000</tspan>

<tspan x="10" y="234">[ci skip] npm published</tspan>

<tspan x="10" y="250"></tspan>

<tspan x="10" y="266">2017-10-08 12:29:18 +0800</tspan>

<tspan x="10" y="282">[npm publishAfterCommitAfterBuild]</tspan>

<tspan x="10" y="298">2017-10-08 12:27:53 +0800</tspan>

<tspan x="10" y="314">npmdoc/node-npmdoc-sandbox3</tspan>

<tspan x="10" y="330">2017-05-30 07:57:29 +0000</tspan>

<tspan x="10" y="346">[ci skip] npm published</tspan>

<tspan x="10" y="362"></tspan>

<tspan x="10" y="378">2017-05-30 15:54:49 +0800</tspan>

<tspan x="10" y="394">[npm publishAfterCommitAfterBuild]</tspan>

<tspan x="10" y="410">2017-04-27 20:20:11 +0000</tspan>

<tspan x="10" y="426">[ci skip] npm published</tspan>

<tspan x="10" y="442"></tspan>

<tspan x="10" y="458">2017-04-28 00:42:05 +0800</tspan>

<tspan x="10" y="474">[npm publishAfterCommitAfterBuild]</tspan>

<tspan x="10" y="490">2017-04-26 11:33:21 +0000</tspan>

<tspan x="10" y="506">[ci skip] npm published</tspan>

<tspan x="10" y="522"></tspan>

<tspan x="10" y="538">2017-04-26 11:29:11 +0000</tspan>

<tspan x="10" y="554">[npm publishAfterCommitAfterBuild]</tspan>

<tspan x="10" y="570"></tspan>

<tspan x="10" y="586">2017-04-25 17:46:48 +0000</tspan>

<tspan x="10" y="602">[ci skip] npm published</tspan>

<tspan x="10" y="618"></tspan>

<tspan x="10" y="634">2017-04-25 17:43:59 +0000</tspan>

<tspan x="10" y="650">[npm publishAfterCommitAfterBuild]</tspan>

<tspan x="10" y="666"></tspan>

<tspan x="10" y="682">2014-03-26 02:31:50 +0700</tspan>

<tspan x="10" y="698">add blank README.md</tspan>

</text>
</svg>
